<?xml version="1.0" encoding="iso-8859-1"?>
<!-- Generator: Adobe Illustrator 19.0.0, SVG Export Plug-In . SVG Version: 6.00 Build 0)  -->
<svg xmlns="http://www.w3.org/2000/svg" xmlns:xlink="http://www.w3.org/1999/xlink" version="1.1" id="Capa_1" x="0px" y="0px" viewBox="0 0 512.001 512.001" style="enable-background:new 0 0 512.001 512.001;" xml:space="preserve" width="512px" height="512px">
<g>
	<g>
		<path d="M202.288,120.422c-1.312-18.361-5.325-35.79-11.452-51.407c-0.117-0.367-0.258-0.729-0.434-1.08    c-13.108-32.704-35.563-57.255-62.127-65.244c-16.414-4.938-48.493-7.314-78.904,32.227    c-26.181,34.04-30.866,84.907-13.924,151.188c12.776,49.983,33.92,92.622,40.097,104.499c1.877,3.61,5.589,5.76,9.496,5.76    c1.024,0,2.062-0.147,3.083-0.455L191.08,264.9c4.129-1.244,7.095-4.82,7.554-9.109    C199.969,243.325,206.417,178.204,202.288,120.422z M61.253,44.058C76.057,24.811,92.691,14.94,110.006,14.94    c4.609,0,9.268,0.7,13.95,2.108c3.577,1.076,7.114,2.586,10.585,4.466c-0.065,0.05-0.135,0.093-0.199,0.144l-15.509,12.379    l-19.811-1.134c-2.837-0.163-5.621,0.724-7.842,2.497L75.672,47.778l-16.45-0.943C59.883,45.9,60.552,44.97,61.253,44.058z     M40.678,122.979l7.353,0.422c0.215,0.013,0.428,0.019,0.642,0.019c2.526,0,4.978-0.854,6.962-2.439l3.301-2.635    c3.235-2.583,3.765-7.299,1.182-10.534c-2.583-3.234-7.3-3.766-10.534-1.182l-2.157,1.722l-6.742-0.387    c0.58-13.946,2.85-27.37,7.376-39.674l8.274-6.605l19.808,1.135c2.84,0.167,5.622-0.723,7.842-2.497l15.509-12.379l19.811,1.134    c2.837,0.162,5.622-0.724,7.842-2.497l15.509-12.379l9.235,0.529c5.005,5.041,9.684,10.944,13.895,17.607    c2.92,4.621,5.559,9.507,7.923,14.607l-16.747-0.959c-2.746-0.168-5.453,0.703-7.604,2.42L133.744,80.87L113.8,79.73    c-2.755-0.167-5.451,0.701-7.604,2.42L90.583,94.612l-2.675-0.153c-4.123-0.249-7.675,2.921-7.912,7.054    c-0.237,4.133,2.922,7.676,7.055,7.912l4.137,0.237c0.215,0.013,0.428,0.019,0.642,0.019c2.526,0,4.977-0.854,6.962-2.439    l15.613-12.462l19.945,1.142c2.748,0.161,5.447-0.701,7.604-2.42l15.614-12.463l21.348,1.222c0.273,0.018,0.545,0.015,0.816,0.001    c3.264,9.923,5.57,20.457,6.853,31.403l-14.71-0.842c-2.756-0.171-5.453,0.703-7.604,2.42l-15.614,12.463l-19.953-1.143    c-2.753-0.159-5.446,0.707-7.596,2.422l-15.613,12.462l-19.942-1.143c-2.754-0.158-5.451,0.703-7.605,2.421l-15.611,12.461    l-18.359-1.053C42.243,143.739,41.072,133.281,40.678,122.979z M184.022,251.368l-96.797,29.155    c-1.918-3.801-4.843-9.772-8.311-17.414l13.862,0.795c2.741,0.152,5.432-0.703,7.58-2.416l15.618-12.467l19.95,1.143    c2.738,0.165,5.437-0.697,7.586-2.414l15.622-12.469l19.953,1.142c2.277,0.139,4.517-0.444,6.444-1.624    C184.946,241.962,184.4,247.651,184.022,251.368z M186.97,214.592l-8.496,6.781l-19.961-1.143    c-2.743-0.153-5.435,0.703-7.578,2.415l-15.622,12.469l-19.95-1.143c-2.736-0.162-5.437,0.698-7.587,2.414l-15.619,12.468    l-19.947-1.144c-3.907-9.359-8.076-20.062-12.065-31.655l17.714,1.016c2.745,0.169,5.438-0.699,7.587-2.414l15.619-12.468    l19.949,1.143c2.742,0.156,5.437-0.698,7.586-2.414l15.623-12.469l19.96,1.144c2.74,0.145,5.432-0.702,7.579-2.416l15.622-12.468    l1.167,0.067C188.309,189.13,187.693,202.746,186.97,214.592z M186.773,159.656c-2.74-0.155-5.437,0.698-7.586,2.414    l-15.623,12.469l-19.96-1.144c-2.745-0.155-5.434,0.704-7.578,2.416l-15.622,12.468l-19.958-1.144    c-2.746-0.154-5.432,0.703-7.579,2.416l-15.618,12.467l-19.955-1.145c-0.693-0.037-1.382-0.011-2.06,0.077    c-3.117-10.166-5.983-20.797-8.338-31.635l16.047,0.92c2.761,0.165,5.451-0.703,7.605-2.421l15.611-12.461l19.941,1.143    c2.752,0.166,5.451-0.701,7.604-2.42l15.614-12.463l19.944,1.142c2.751,0.156,5.451-0.702,7.604-2.42l15.614-12.463l15.319,0.877    c0.574,10.294,0.832,20.748,0.864,31.014L186.773,159.656z" fill="#66587a"/>
	</g>
</g>
<g>
	<g>
		<path d="M462.629,106.599c-30.411-39.542-62.488-37.162-78.904-32.228c-26.563,7.989-49.019,32.54-62.127,65.244    c-0.176,0.351-0.317,0.712-0.434,1.079c-6.127,15.617-10.14,33.046-11.452,51.407c-4.128,57.769,2.319,122.899,3.654,135.371    c0.46,4.29,3.426,7.864,7.554,9.107l102.958,31.011c1.022,0.307,2.059,0.455,3.083,0.455c3.908,0,7.619-2.151,9.495-5.76    c6.176-11.878,27.321-54.517,40.097-104.498C493.495,191.506,488.81,140.639,462.629,106.599z M388.043,88.727    c22.274-6.698,43.959,2.64,62.703,27.011c0.701,0.912,1.37,1.842,2.031,2.777l-16.45,0.943l-15.508-12.379    c-2.22-1.773-5.014-2.664-7.842-2.497l-19.811,1.134l-15.509-12.379c-0.064-0.051-0.134-0.095-0.199-0.144    C380.929,91.314,384.466,89.803,388.043,88.727z M346.215,124.02c4.211-6.663,8.89-12.566,13.895-17.607l9.235-0.529    l15.509,12.379c2.22,1.772,5.008,2.654,7.842,2.497l19.811-1.134l15.51,12.381c2.22,1.77,5.006,2.654,7.842,2.495l19.808-1.135    l8.273,6.604c4.526,12.304,6.796,25.728,7.376,39.675l-6.742,0.387l-15.609-12.461c-2.153-1.72-4.862-2.587-7.605-2.42    l-19.941,1.143l-15.614-12.463c-2.153-1.719-4.849-2.584-7.604-2.42l-19.945,1.142l-15.616-12.465    c-2.153-1.718-4.851-2.583-7.601-2.419l-16.747,0.959C340.656,133.526,343.295,128.641,346.215,124.02z M424.775,352.203    l-96.797-29.155c-0.378-3.717-0.923-9.406-1.508-16.569c1.922,1.178,4.156,1.761,6.441,1.625l19.955-1.143l15.624,12.47    c2.148,1.714,4.835,2.567,7.583,2.413l19.953-1.143l15.616,12.465c2.145,1.715,4.832,2.577,7.588,2.418l13.857-0.794    C429.618,342.431,426.693,348.402,424.775,352.203z M439.79,319.389l-19.946,1.144l-15.616-12.465    c-2.146-1.714-4.838-2.579-7.587-2.418l-19.954,1.143l-15.621-12.467c-2.146-1.714-4.838-2.583-7.585-2.416l-19.955,1.143    l-8.497-6.782c-0.723-11.846-1.339-25.463-1.581-39.818l1.166-0.067l15.623,12.47c2.145,1.712,4.838,2.578,7.582,2.413    l19.957-1.142l15.623,12.469c2.146,1.713,4.843,2.578,7.583,2.414l19.953-1.144l15.62,12.469c2.149,1.715,4.841,2.569,7.584,2.413    l17.717-1.016C447.867,299.327,443.698,310.03,439.79,319.389z M456.769,272.628c-0.679-0.087-1.37-0.114-2.065-0.074    l-19.95,1.144l-15.619-12.468c-2.146-1.713-4.842-2.574-7.583-2.414l-19.953,1.144l-15.624-12.47    c-2.149-1.715-4.846-2.572-7.582-2.413l-19.957,1.142l-15.623-12.47c-2.149-1.715-4.844-2.582-7.582-2.413l-1.89,0.108    c0.032-10.267,0.289-20.721,0.864-31.015l15.319-0.877l15.613,12.462c2.154,1.719,4.852,2.58,7.604,2.421l19.945-1.142    l15.613,12.462c2.153,1.72,4.861,2.585,7.604,2.42l19.943-1.142l15.609,12.461c2.153,1.719,4.849,2.576,7.605,2.42l16.046-0.92    C462.751,251.832,459.885,262.463,456.769,272.628z M468.023,225.812l-18.359,1.053l-15.609-12.461    c-2.153-1.719-4.848-2.581-7.605-2.42l-19.942,1.142l-15.613-12.462c-2.153-1.719-4.854-2.588-7.604-2.42l-19.944,1.142    l-15.612-12.461c-2.154-1.72-4.861-2.583-7.605-2.422l-14.711,0.842c1.283-10.947,3.588-21.481,6.853-31.404    c0.271,0.013,0.542,0.017,0.815,0l21.348-1.222l15.613,12.463c2.153,1.719,4.853,2.578,7.604,2.42l19.945-1.142l15.613,12.462    c2.154,1.719,4.855,2.58,7.605,2.421l19.942-1.143l15.609,12.461c1.985,1.585,4.436,2.439,6.963,2.439    c0.214,0,0.428-0.006,0.643-0.019l7.351-0.422C470.927,204.961,469.757,215.42,468.023,225.812z" fill="#66587a"/>
	</g>
</g>
<g>
	<g>
		<path d="M414.008,395.176L313.016,362.82c-5.621-1.802-11.655,1.309-13.455,6.927l-18.93,59.08    c-1.823,5.689-2.781,11.448-2.985,17.145c-0.009,0.138-0.012,0.277-0.014,0.416c-0.805,27.654,16.607,53.714,44.241,62.569    c6.442,2.063,12.972,3.044,19.4,3.044c24.07,0,46.65-13.767,57.381-35.941c0.004-0.007,0.009-0.014,0.012-0.021    c0.011-0.023,0.021-0.047,0.032-0.07c0.296-0.613,0.582-1.233,0.859-1.86c0.047-0.106,0.093-0.212,0.139-0.317    c0.249-0.57,0.492-1.142,0.725-1.722c0.101-0.249,0.194-0.499,0.291-0.748c0.176-0.454,0.354-0.906,0.52-1.366    c0.271-0.746,0.529-1.492,0.769-2.239c0-0.001,0-0.002,0.001-0.002l18.928-59.08C422.734,403.016,419.629,396.979,414.008,395.176    z M326.449,494.68c-18.88-6.049-31.519-22.603-33.563-41.143l13.565-0.776l14.7,11.733c2.742,2.189,6.181,3.281,9.684,3.082    l18.776-1.075l14.696,11.731c2.529,2.018,5.65,3.107,8.868,3.107c0.272,0,0.545-0.008,0.817-0.023l3.3-0.189    C364.831,494.728,345.139,500.67,326.449,494.68z M399.446,426.567l-13.607,0.78l-14.699-11.733    c-2.743-2.186-6.183-3.284-9.682-3.08l-2.759,0.158c-4.133,0.236-7.291,3.779-7.055,7.911c0.237,4.133,3.778,7.296,7.912,7.055    l2.464-0.141l14.696,11.731c2.528,2.018,5.65,3.107,8.868,3.107c0.272,0,0.545-0.008,0.817-0.023l8.143-0.467l-6.812,21.263    c-0.001,0.004-0.003,0.007-0.004,0.011c-0.258,0.806-0.542,1.614-0.85,2.421l-13.45,0.771l-14.697-11.732    c-2.744-2.191-6.184-3.288-9.684-3.082l-18.776,1.075l-14.701-11.733c-2.742-2.188-6.177-3.284-9.682-3.081l-12.307,0.704    c0.349-1.698,0.787-3.394,1.327-5.081l5.957-18.593l17.996-1.03l2.246,1.793c1.381,1.103,3.032,1.638,4.672,1.638    c2.201,0,4.383-0.965,5.863-2.819c2.582-3.235,2.054-7.952-1.181-10.535l-2.481-1.98c-2.743-2.186-6.181-3.288-9.681-3.08    l-12.532,0.718l6.762-21.105l92.819,29.739L399.446,426.567z" fill="#66587a"/>
	</g>
</g>
<g>
	<g>
		<path d="M234.365,374.696c-0.001-0.132-0.004-0.265-0.012-0.396c-0.203-5.699-1.161-11.461-2.985-17.152l-18.93-59.08    c-0.872-2.722-2.752-4.942-5.293-6.25c-2.543-1.309-5.443-1.548-8.163-0.676L97.99,323.498c-5.618,1.802-8.724,7.838-6.924,13.455    l18.929,59.08c5.194,16.21,16.389,29.427,31.523,37.217c9.154,4.712,19.085,7.097,29.092,7.097c6.538,0,13.11-1.018,19.515-3.071    C217.763,428.421,235.176,402.355,234.365,374.696z M106.652,336.465l92.819-29.739l6.762,21.105l-12.532-0.717    c-3.494-0.198-6.941,0.893-9.683,3.082l-14.7,11.733l-18.771-1.075c-3.499-0.214-6.945,0.891-9.688,3.082l-14.697,11.732    l-13.607-0.78L106.652,336.465z M125.12,393.88c-0.301-0.797-0.586-1.603-0.848-2.42l-6.817-21.275l8.144,0.467    c0.273,0.016,0.545,0.023,0.817,0.023c3.217,0,6.339-1.088,8.867-3.107l14.696-11.731l18.776,1.075    c3.497,0.198,6.942-0.893,9.683-3.082l14.7-11.733l17.995,1.029l5.958,18.594c0.541,1.687,0.978,3.383,1.327,5.081l-12.307-0.704    c-3.503-0.194-6.943,0.894-9.683,3.082l-14.7,11.733l-18.776-1.076c-3.501-0.2-6.943,0.895-9.683,3.083l-14.698,11.732    L125.12,393.88z M185.551,422.999c-12.396,3.973-25.597,2.879-37.172-3.078c-5.24-2.697-9.855-6.252-13.713-10.478l3.343,0.192    c0.273,0.016,0.545,0.023,0.817,0.023c3.217,0,6.339-1.088,8.867-3.107l14.698-11.732l18.775,1.076    c3.509,0.195,6.94-0.894,9.683-3.082l14.7-11.733l13.565,0.776C217.07,400.398,204.432,416.95,185.551,422.999z" fill="#66587a"/>
	</g>
</g>
<g>
</g>
<g>
</g>
<g>
</g>
<g>
</g>
<g>
</g>
<g>
</g>
<g>
</g>
<g>
</g>
<g>
</g>
<g>
</g>
<g>
</g>
<g>
</g>
<g>
</g>
<g>
</g>
<g>
</g>
</svg>
