<svg height="512pt" viewBox="0 -48 512.00029 512" width="512pt" xmlns="http://www.w3.org/2000/svg"><path d="m251.167969 115.921875h-96.605469c-5.332031 0-9.660156-4.324219-9.660156-9.660156 0-5.332031 4.328125-9.660157 9.660156-9.660157h96.601562c10.671876.003907 19.324219-8.648437 19.324219-19.316406 0-.09375 0-.1875-.003906-.28125-.144531-10.671875-8.910156-19.203125-19.578125-19.058594-8.097656.109376-15.265625 5.257813-17.960938 12.894532-1.777343 5.03125-7.292968 7.667968-12.324218 5.890625-5.03125-1.777344-7.671875-7.292969-5.894532-12.324219 7.097657-20.128906 29.164063-30.691406 49.292969-23.59375 15.269531 5.382812 25.5625 19.71875 25.785157 35.910156.3125 21.335938-16.738282 38.886719-38.074219 39.195313-.1875.003906-.375.003906-.5625.003906zm0 0" fill="#aedee2"/><path d="m251.167969 0c-29.828125.0859375-56.96875 17.25-69.835938 44.15625-2.175781 4.871094.007813 10.585938 4.882813 12.761719 4.707031 2.101562 10.242187.132812 12.5625-4.472657 13.71875-28.921874 48.285156-41.25 77.207031-27.535156 28.925781 13.71875 41.253906 48.285156 27.535156 77.207032-9.589843 20.226562-29.96875 33.121093-52.351562 33.125h-241.507813c-5.335937 0-9.660156 4.328124-9.660156 9.660156 0 5.335937 4.324219 9.660156 9.660156 9.660156h241.503906c42.683594 0 77.285157-34.597656 77.285157-77.28125 0-42.679688-34.601563-77.28125-77.28125-77.28125zm0 0" fill="#8aced8"/><path d="m434.710938 376.75c-16.378907.003906-30.980469-10.320312-36.4375-25.765625-1.777344-5.03125.859374-10.550781 5.890624-12.324219 5.03125-1.777344 10.550782.859375 12.328126 5.890625 2.585937 7.953125 10.144531 13.214844 18.5 12.878907 10.371093-.335938 18.703124-8.667969 19.039062-19.042969.152344-10.667969-8.367188-19.441407-19.039062-19.597657-.09375 0-.1875 0-.28125 0h-96.601563c-5.335937 0-9.660156-4.328124-9.660156-9.660156 0-5.335937 4.324219-9.660156 9.660156-9.660156h96.601563c21.339843-.003906 38.644531 17.292969 38.644531 38.636719 0 .1875 0 .375-.003907.5625-.441406 20.847656-17.234374 37.640625-38.082031 38.082031zm0 0" fill="#aedee2"/><path d="m434.710938 260.828125h-212.523438c-5.335938 0-9.660156 4.324219-9.660156 9.660156 0 5.332031 4.324218 9.660157 9.660156 9.660157h212.523438c32.011718.007812 57.953124 25.964843 57.945312 57.976562-.011719 32.011719-25.96875 57.953125-57.980469 57.945312-22.382812-.007812-42.761719-12.902343-52.351562-33.125-2.175781-4.871093-7.890625-7.058593-12.761719-4.882812s-7.054688 7.890625-4.878906 12.761719c.0625.136719.125.273437.195312.410156 18.292969 38.5625 64.382813 54.992187 102.945313 36.695313 38.5625-18.292969 54.992187-64.382813 36.699219-102.945313-12.792969-26.964844-39.96875-44.152344-69.8125-44.15625zm0 0" fill="#8aced8"/><g fill="#b3e4e8"><path d="m164.222656 212.527344h-86.941406c-5.335938 0-9.660156-4.328125-9.660156-9.660156 0-5.335938 4.324218-9.660157 9.660156-9.660157h86.941406c5.335938 0 9.660156 4.324219 9.660156 9.660157 0 5.332031-4.324218 9.660156-9.660156 9.660156zm0 0"/><path d="m231.847656 212.527344h-28.984375c-5.332031 0-9.660156-4.328125-9.660156-9.660156 0-5.335938 4.328125-9.660157 9.660156-9.660157h28.984375c5.332032 0 9.660156 4.324219 9.660156 9.660157 0 5.332031-4.328124 9.660156-9.660156 9.660156zm0 0"/><path d="m386.410156 212.527344h-115.921875c-5.335937 0-9.660156-4.328125-9.660156-9.660156 0-5.335938 4.324219-9.660157 9.660156-9.660157h115.921875c5.335938 0 9.660156 4.324219 9.660156 9.660157 0 5.332031-4.324218 9.660156-9.660156 9.660156zm0 0"/></g><path d="m115.921875 115.921875h-28.980469c-5.335937 0-9.660156-4.324219-9.660156-9.660156 0-5.332031 4.324219-9.660157 9.660156-9.660157h28.980469c5.335937 0 9.660156 4.328126 9.660156 9.660157 0 5.335937-4.324219 9.660156-9.660156 9.660156zm0 0" fill="#aedee2"/><path d="m48.300781 115.921875h-38.640625c-5.335937 0-9.660156-4.324219-9.660156-9.660156 0-5.332031 4.324219-9.660157 9.660156-9.660157h38.640625c5.335938 0 9.660157 4.328126 9.660157 9.660157 0 5.335937-4.324219 9.660156-9.660157 9.660156zm0 0" fill="#aedee2"/><path d="m38.640625 212.527344h-28.980469c-5.335937 0-9.660156-4.328125-9.660156-9.664063 0-5.332031 4.324219-9.65625 9.660156-9.65625h28.980469c5.335937 0 9.660156 4.324219 9.660156 9.65625 0 5.335938-4.324219 9.664063-9.660156 9.664063zm0 0" fill="#b3e4e8"/><path d="m299.46875 318.789062h-28.980469c-5.335937 0-9.660156-4.324218-9.660156-9.660156 0-5.335937 4.324219-9.660156 9.660156-9.660156h28.980469c5.332031 0 9.660156 4.324219 9.660156 9.660156 0 5.335938-4.328125 9.660156-9.660156 9.660156zm0 0" fill="#aedee2"/><path d="m231.847656 318.789062h-28.984375c-5.332031 0-9.660156-4.324218-9.660156-9.660156 0-5.335937 4.328125-9.660156 9.660156-9.660156h28.984375c5.332032 0 9.660156 4.324219 9.660156 9.660156 0 5.335938-4.328124 9.660156-9.660156 9.660156zm0 0" fill="#aedee2"/><path d="m183.542969 280.148438h-28.980469c-5.332031 0-9.660156-4.324219-9.660156-9.660157 0-5.335937 4.328125-9.660156 9.660156-9.660156h28.980469c5.335937 0 9.660156 4.324219 9.660156 9.660156 0 5.335938-4.324219 9.660157-9.660156 9.660157zm0 0" fill="#8aced8"/><path d="m115.921875 280.148438h-19.320313c-5.335937 0-9.660156-4.324219-9.660156-9.660157 0-5.335937 4.324219-9.660156 9.660156-9.660156h19.320313c5.335937 0 9.660156 4.324219 9.660156 9.660156 0 5.335938-4.324219 9.660157-9.660156 9.660157zm0 0" fill="#8aced8"/><path d="m164.222656 318.789062h-67.621094c-5.335937 0-9.660156-4.324218-9.660156-9.660156 0-5.335937 4.324219-9.660156 9.660156-9.660156h67.621094c5.335938 0 9.660156 4.324219 9.660156 9.660156 0 5.335938-4.324218 9.660156-9.660156 9.660156zm0 0" fill="#aedee2"/></svg>