<?xml version="1.0" encoding="iso-8859-1"?>
<!-- Generator: Adobe Illustrator 19.0.0, SVG Export Plug-In . SVG Version: 6.00 Build 0)  -->
<svg version="1.1" id="Capa_1" xmlns="http://www.w3.org/2000/svg" xmlns:xlink="http://www.w3.org/1999/xlink" x="0px" y="0px"
	 viewBox="0 0 512 512" style="enable-background:new 0 0 512 512;" xml:space="preserve">
<linearGradient id="SVGID_1_" gradientUnits="userSpaceOnUse" x1="243.3275" y1="164.2543" x2="220.0475" y2="129.0543" gradientTransform="matrix(1.0039 0 0 -1.0039 0.1922 516.5622)">
	<stop  offset="0" style="stop-color:#E2EDF2"/>
	<stop  offset="1" style="stop-color:#9FC7E2"/>
</linearGradient>
<path style="fill:url(#SVGID_1_);" d="M493.092,477.423c-2.338,1.585-4.681,2.891-6.962,3.946
	c-9.178,4.306-17.375,4.786-20.635,4.799c-0.956-0.012-1.481-0.05-1.481-0.05c-65.408-2.476-128.88-22.889-183.477-58.99
	L15.011,251.552c-6.727-4.448-11.763-11.012-14.327-18.661c-2.476-7.366,2.119-17.489,8.214-26.706
	c8.216-12.426,19.157-23.17,19.157-23.17l449.614,284.637L493.092,477.423z"/>
<linearGradient id="SVGID_2_" gradientUnits="userSpaceOnUse" x1="256.8073" y1="177.8341" x2="288.7873" y2="275.1741" gradientTransform="matrix(1.0039 0 0 -1.0039 0.1922 516.5622)">
	<stop  offset="0" style="stop-color:#9FC7E2;stop-opacity:0"/>
	<stop  offset="1" style="stop-color:#9FC7E2"/>
</linearGradient>
<path style="fill:url(#SVGID_2_);" d="M493.092,477.423c-2.338,1.585-4.681,2.891-6.962,3.946
	c-9.178,4.306-17.375,4.786-20.635,4.799c-0.956-0.012-1.481-0.05-1.481-0.05c-65.408-2.476-128.88-22.889-183.477-58.99
	L46.242,272.203l-18.188-89.186l449.614,284.637L493.092,477.423z"/>
<linearGradient id="SVGID_3_" gradientUnits="userSpaceOnUse" x1="297.669" y1="392.1735" x2="285.2491" y2="353.5235" gradientTransform="matrix(1.0039 0 0 -1.0039 0.1922 516.5622)">
	<stop  offset="0" style="stop-color:#9EB644"/>
	<stop  offset="1" style="stop-color:#738611"/>
</linearGradient>
<path style="fill:url(#SVGID_3_);" d="M325.329,167.264c0,0,1.245-28.167,8.292-50.842c2.624-8.444-5.249-17.842-14.889-17.847l0,0
	c-21.773-0.012-40.947,9.658-51.852,26.15l-17.562,26.56L325.329,167.264z"/>
<linearGradient id="SVGID_4_" gradientUnits="userSpaceOnUse" x1="283.6674" y1="240.5945" x2="178.9674" y2="104.4545" gradientTransform="matrix(1.0039 0 0 -1.0039 0.1922 516.5622)">
	<stop  offset="0" style="stop-color:#9EB644"/>
	<stop  offset="1" style="stop-color:#738611"/>
</linearGradient>
<path style="fill:url(#SVGID_4_);" d="M507.874,462.25c-4.496,6.8-9.644,11.671-14.781,15.172c-2.338,1.585-4.681,2.891-6.962,3.946
	l-11.001-4.23l-58.263-22.44c-35.411-13.626-69.608-30.441-100.982-51.186c-29.279-19.361-56.112-42.162-79.163-69.017
	c-26.728-31.128-60.748-53.674-94.972-76.303L28.056,183.016c3.17-62.815,49.503-120.762,80.728-149.302
	c10.876-9.944,26.156-10.025,37.109-2.783c5.698,3.768,10.213,9.506,12.346,16.869c7.626,26.324,24.298,48.359,46.24,62.868
	c14.341,9.482,30.926,15.753,48.701,17.906c12.253,1.479,23.975,4.928,34.813,10.081c0.036,0.024,0.091,0.043,0.128,0.067
	c0.869,0.403,1.731,0.817,2.576,1.256c0.762,0.383,1.527,0.786,2.273,1.194c0.128,0.067,0.255,0.135,0.383,0.202
	c0.407,0.218,0.813,0.435,1.201,0.657c1.413,0.779,2.812,1.601,4.176,2.452c0.295,0.178,0.59,0.356,0.877,0.546
	c0.77,0.475,1.52,0.954,2.274,1.453c16.766,11.069,30.524,26.584,39.518,45.245l37.557,77.978
	c6.058,12.59,12.747,24.824,20.003,36.693c2.343,3.82,4.749,7.597,7.219,11.328c13.386,20.343,28.548,39.435,45.275,57.068
	c0.783,0.844,1.586,1.686,2.385,2.507c0.791,0.833,1.59,1.653,2.409,2.471c1.622,1.657,3.249,3.284,4.882,4.897
	c0.676,0.67,1.35,1.34,2.033,1.998c0.232,0.222,0.452,0.436,0.672,0.651c1.574,1.522,3.167,3.041,4.77,4.547
	c0.087,0.075,0.176,0.151,0.244,0.23c1.601,1.506,3.22,2.989,4.845,4.459c0.371,0.349,0.739,0.678,1.106,1.007l0.012,0.008
	c1.346,1.217,2.708,2.409,4.058,3.594c0.319,0.297,0.659,0.59,0.987,0.875c0.076,0.067,0.16,0.122,0.248,0.198
	c0.028,0.036,0.064,0.059,0.099,0.083c0.519,0.464,1.046,0.916,1.561,1.359c0.655,0.57,1.306,1.121,1.969,1.68
	c0.123,0.099,0.252,0.218,0.379,0.337c0.16,0.122,0.323,0.265,0.463,0.393C498.893,418.721,521.297,441.949,507.874,462.25z"/>
<linearGradient id="SVGID_5_" gradientUnits="userSpaceOnUse" x1="378.0192" y1="201.0625" x2="316.6492" y2="163.5025" gradientTransform="matrix(1.0039 0 0 -1.0039 0.1922 516.5622)">
	<stop  offset="0" style="stop-color:#9EB644"/>
	<stop  offset="1" style="stop-color:#738611"/>
</linearGradient>
<path style="fill:url(#SVGID_5_);" d="M507.874,462.25c-4.496,6.8-9.644,11.671-14.781,15.172c-2.338,1.585-4.681,2.891-6.962,3.946
	l-11.001-4.23c1.418-3.054,2.265-6.261,2.539-9.486c0.929-10.121-3.579-20.397-12.652-26.396l-0.012-0.008
	c-62.174-41.112-112.09-98.29-144.427-165.452l-37.569-77.985c-0.024-0.067-0.068-0.132-0.092-0.199
	c-7.145-14.772-7.819-31.939-0.981-46.859c1.879-4.091,3.894-8.126,6.056-12.098c0.036,0.024,0.091,0.043,0.128,0.067
	c0.869,0.403,1.731,0.817,2.576,1.256c0.762,0.383,1.527,0.786,2.273,1.194c0.128,0.067,0.255,0.135,0.383,0.202
	c0.407,0.218,0.813,0.435,1.201,0.657c1.413,0.779,2.812,1.601,4.176,2.452c0.295,0.178,0.59,0.356,0.877,0.546
	c0.77,0.475,1.52,0.954,2.274,1.453c16.766,11.069,30.524,26.584,39.518,45.245l37.557,77.978
	c6.058,12.59,12.747,24.824,20.003,36.693c2.351,3.808,4.757,7.585,7.219,11.328c13.386,20.343,28.548,39.435,45.275,57.068
	c0.791,0.833,1.594,1.674,2.385,2.507c0.799,0.821,1.61,1.649,2.409,2.471c1.622,1.657,3.249,3.284,4.882,4.897
	c0.676,0.67,1.358,1.328,2.033,1.998c0.232,0.222,0.452,0.436,0.672,0.651c1.574,1.522,3.167,3.041,4.77,4.547
	c0.087,0.075,0.176,0.151,0.244,0.23c1.601,1.506,3.22,2.989,4.845,4.459c0.371,0.349,0.739,0.678,1.106,1.007l0.012,0.008
	c1.346,1.217,2.708,2.409,4.058,3.594c0.408,0.372,0.81,0.726,1.234,1.074c0.028,0.036,0.064,0.059,0.099,0.083
	c0.519,0.464,1.046,0.916,1.561,1.359c0.778,0.67,1.569,1.347,2.348,2.017c0.16,0.122,0.323,0.265,0.463,0.393
	C498.893,418.721,521.297,441.949,507.874,462.25z"/>
<linearGradient id="SVGID_6_" gradientUnits="userSpaceOnUse" x1="300.2918" y1="256.6215" x2="228.2618" y2="147.6915" gradientTransform="matrix(1.0039 0 0 -1.0039 0.1922 516.5622)">
	<stop  offset="0" style="stop-color:#FFE7A5"/>
	<stop  offset="0.966" style="stop-color:#FFBF5C"/>
</linearGradient>
<path style="fill:url(#SVGID_6_);" d="M353.981,407.505L353.981,407.505c-7.938-9.248-16.384-17.899-25.221-26.096
	c-30.976-28.729-52.565-66.129-61.007-107.525l0,0c-9.428-46.229-2.127-94.102,20.244-135.227
	c-10.841-5.141-22.568-8.599-34.812-10.082l0,0c-21.265-2.577-40.824-11.047-56.875-23.854l-4.525,6.843
	c-22.951,34.71-31.174,77.115-22.859,117.887l0,0c6.637,32.544,23.609,61.948,47.962,84.533
	c6.948,6.444,13.588,13.246,19.828,20.516l0,0c40.878,47.622,93.614,82.46,150.866,108.037
	C375.811,431.504,364.576,419.849,353.981,407.505z"/>
<linearGradient id="SVGID_7_" gradientUnits="userSpaceOnUse" x1="128.8593" y1="456.6572" x2="104.2693" y2="419.4732" gradientTransform="matrix(1.0039 0 0 -1.0039 0.1922 516.5622)">
	<stop  offset="0" style="stop-color:#FFE7A5"/>
	<stop  offset="0.966" style="stop-color:#FFBF5C"/>
</linearGradient>
<path style="fill:url(#SVGID_7_);" d="M77.397,67.668c3.326,3.554,7.102,6.79,11.34,9.591c25.144,16.626,57.794,12.947,78.676-7.072
	c-3.801-7.021-6.901-14.508-9.181-22.383l0,0c-6.225-21.516-32.924-29.208-49.453-14.093C99.182,42.486,88.158,54.049,77.397,67.668
	z"/>
<linearGradient id="SVGID_8_" gradientUnits="userSpaceOnUse" x1="358.5096" y1="180.3534" x2="396.5596" y2="316.7133" gradientTransform="matrix(1.0039 0 0 -1.0039 0.1922 516.5622)">
	<stop  offset="0" style="stop-color:#738611;stop-opacity:0"/>
	<stop  offset="1" style="stop-color:#738611"/>
</linearGradient>
<path style="fill:url(#SVGID_8_);" d="M437.482,359.31c-21.266,4.347-50.696,10.348-54.077,11.038
	c-0.199,0.04-0.318,0.065-0.318,0.065l-33.08,6.994c-2.143,0.458-4.279-0.008-5.978-1.131c-1.676-1.108-2.92-2.843-3.362-4.958
	c0,0-10.308-50.549-19.063-93.43c-6.407-31.471-11.987-58.834-12.028-59.033c-0.912-4.268,1.819-8.449,6.079-9.349l31.136-6.577
	l17.579,36.484l14.586,30.29c6.058,12.59,12.747,24.824,20.003,36.693c2.351,3.808,4.757,7.585,7.219,11.328
	C415.736,332.252,426.189,346.131,437.482,359.31z"/>
<linearGradient id="SVGID_9_" gradientUnits="userSpaceOnUse" x1="352.5731" y1="314.0372" x2="312.0885" y2="289.2643" gradientTransform="matrix(1.0039 0 0 -1.0039 0.1922 516.5622)">
	<stop  offset="0" style="stop-color:#FFE7A5"/>
	<stop  offset="0.966" style="stop-color:#FFBF5C"/>
</linearGradient>
<path style="fill:url(#SVGID_9_);" d="M312.936,223.807c-1.669-1.104-2.922-2.839-3.369-4.951c-0.902-4.266,1.825-8.454,6.09-9.355
	l33.074-6.988c4.265-0.903,8.454,1.825,9.354,6.09c0.902,4.266-1.825,8.453-6.09,9.354l-33.074,6.988
	C316.769,225.4,314.636,224.931,312.936,223.807z"/>
<linearGradient id="SVGID_10_" gradientUnits="userSpaceOnUse" x1="363.5188" y1="291.2953" x2="323.0403" y2="266.5162" gradientTransform="matrix(1.0039 0 0 -1.0039 0.1922 516.5622)">
	<stop  offset="0" style="stop-color:#FFE7A5"/>
	<stop  offset="0.966" style="stop-color:#FFBF5C"/>
</linearGradient>
<path style="fill:url(#SVGID_10_);" d="M323.927,246.64c-1.669-1.104-2.922-2.839-3.369-4.952c-0.901-4.265,1.826-8.453,6.091-9.354
	l33.074-6.988c4.266-0.901,8.453,1.826,9.355,6.092c0.901,4.265-1.826,8.453-6.091,9.354l-33.074,6.988
	C327.76,248.234,325.627,247.765,323.927,246.64z"/>
<linearGradient id="SVGID_11_" gradientUnits="userSpaceOnUse" x1="375.8467" y1="265.2737" x2="335.3681" y2="240.4946" gradientTransform="matrix(1.0039 0 0 -1.0039 0.1922 516.5622)">
	<stop  offset="0" style="stop-color:#FFE7A5"/>
	<stop  offset="0.966" style="stop-color:#FFBF5C"/>
</linearGradient>
<path style="fill:url(#SVGID_11_);" d="M336.304,272.764c-1.669-1.104-2.922-2.839-3.369-4.952
	c-0.901-4.265,1.826-8.453,6.091-9.354l33.074-6.988c4.266-0.902,8.453,1.827,9.355,6.091c0.901,4.265-1.826,8.453-6.091,9.354
	l-33.074,6.988C340.137,274.357,338.003,273.889,336.304,272.764z"/>
<linearGradient id="SVGID_12_" gradientUnits="userSpaceOnUse" x1="388.3761" y1="240.0047" x2="347.8971" y2="215.2253" gradientTransform="matrix(1.0039 0 0 -1.0039 0.1922 516.5622)">
	<stop  offset="0" style="stop-color:#FFE7A5"/>
	<stop  offset="0.966" style="stop-color:#FFBF5C"/>
</linearGradient>
<path style="fill:url(#SVGID_12_);" d="M348.882,298.132c-1.669-1.103-2.922-2.839-3.368-4.951c-0.902-4.266,1.825-8.453,6.09-9.355
	l33.074-6.988c4.265-0.902,8.453,1.824,9.354,6.09c0.902,4.266-1.825,8.454-6.09,9.355l-33.074,6.988
	C352.716,299.727,350.583,299.257,348.882,298.132z"/>
<linearGradient id="SVGID_13_" gradientUnits="userSpaceOnUse" x1="403.2868" y1="214.5128" x2="362.8081" y2="189.7335" gradientTransform="matrix(1.0039 0 0 -1.0039 0.1922 516.5622)">
	<stop  offset="0" style="stop-color:#FFE7A5"/>
	<stop  offset="0.966" style="stop-color:#FFBF5C"/>
</linearGradient>
<path style="fill:url(#SVGID_13_);" d="M363.851,323.724c-1.67-1.104-2.922-2.839-3.369-4.952c-0.901-4.265,1.826-8.453,6.091-9.354
	l33.074-6.988c4.266-0.901,8.453,1.826,9.355,6.091c0.901,4.265-1.826,8.453-6.091,9.354l-33.074,6.988
	C367.684,325.317,365.552,324.849,363.851,323.724z"/>
<linearGradient id="SVGID_14_" gradientUnits="userSpaceOnUse" x1="419.383" y1="190.5666" x2="378.898" y2="165.7937" gradientTransform="matrix(1.0039 0 0 -1.0039 0.1922 516.5622)">
	<stop  offset="0" style="stop-color:#FFE7A5"/>
	<stop  offset="0.966" style="stop-color:#FFBF5C"/>
</linearGradient>
<path style="fill:url(#SVGID_14_);" d="M380.007,347.761c-1.67-1.104-2.922-2.839-3.369-4.952c-0.901-4.265,1.826-8.453,6.091-9.354
	l33.074-6.988c4.266-0.901,8.453,1.826,9.355,6.091c0.901,4.265-1.826,8.453-6.091,9.354l-33.074,6.988
	C383.839,349.354,381.707,348.886,380.007,347.761z"/>
<g>
	<path style="fill:#FFBF5C;" d="M195.409,132.79c-1.184-0.783-1.633-2.341-0.993-3.651c2.443-5.003,4.189-7.74,4.262-7.855
		c0.855-1.333,2.629-1.721,3.963-0.866c1.296,0.849,1.724,2.629,0.87,3.964c-0.017,0.025-1.657,2.605-3.937,7.275
		c-0.695,1.425-2.413,2.015-3.838,1.319C195.621,132.922,195.513,132.859,195.409,132.79z"/>
	<path style="fill:#FFBF5C;" d="M204.296,287.02c-0.357-0.236-0.666-0.555-0.896-0.951c-2.76-4.746-5.325-9.6-7.626-14.427
		c-0.682-1.431-0.075-3.143,1.356-3.825c1.43-0.683,3.143-0.077,3.825,1.356c2.234,4.687,4.726,9.401,7.408,14.011
		c0.797,1.37,0.331,3.127-1.038,3.924C206.349,287.674,205.177,287.602,204.296,287.02z M190.501,257.992
		c-0.49-0.324-0.884-0.8-1.105-1.391c-1.912-5.136-3.589-10.377-4.984-15.575c-0.411-1.531,0.497-3.106,2.028-3.517
		c1.53-0.412,3.105,0.497,3.517,2.028c1.349,5.026,2.972,10.093,4.821,15.062c0.552,1.485-0.203,3.137-1.689,3.69
		C192.194,258.622,191.24,258.481,190.501,257.992z M182.193,226.957c-0.643-0.425-1.113-1.106-1.25-1.926
		c-0.89-5.378-1.517-10.851-1.86-16.269c-0.1-1.581,1.101-2.946,2.682-3.046c1.58-0.1,2.946,1.1,3.046,2.682
		c0.331,5.225,0.936,10.506,1.795,15.694c0.259,1.564-0.799,3.041-2.363,3.301C183.5,227.517,182.775,227.342,182.193,226.957z
		 M180.163,194.892c-0.809-0.535-1.327-1.467-1.287-2.506c0.208-5.432,0.696-10.921,1.451-16.315c0.22-1.57,1.672-2.664,3.241-2.445
		c1.571,0.222,2.664,1.672,2.445,3.241c-0.729,5.203-1.2,10.499-1.399,15.738c-0.061,1.583-1.394,2.819-2.979,2.759
		C181.089,195.343,180.586,195.171,180.163,194.892z M184.613,163.061c-0.982-0.65-1.5-1.866-1.205-3.075
		c1.299-5.322,2.875-10.605,4.684-15.703c0.53-1.493,2.171-2.275,3.665-1.745c1.495,0.531,2.275,2.171,1.745,3.665
		c-1.745,4.915-3.265,10.01-4.518,15.143c-0.375,1.54-1.929,2.484-3.469,2.108C185.185,163.373,184.882,163.238,184.613,163.061z"/>
	<path style="fill:#FFBF5C;" d="M217.94,307.648c-0.27-0.179-0.515-0.408-0.72-0.682c-1.735-2.334-3.441-4.72-5.071-7.092
		c-0.898-1.307-0.566-3.093,0.74-3.991c1.307-0.9,3.095-0.566,3.991,0.74c1.59,2.314,3.255,4.642,4.947,6.918
		c0.946,1.272,0.681,3.07-0.591,4.016C220.239,308.298,218.92,308.296,217.94,307.648z"/>
</g>
<path style="fill:#738611;" d="M84.981,92.797c-0.492-0.325-0.983-0.658-1.475-0.999c-1.303-0.903-1.627-2.692-0.725-3.994
	c0.904-1.303,2.735-1.63,3.994-0.725c4.749,3.291,9.608,5.87,14.53,7.725c1.483,0.554,2.232,2.216,1.673,3.698
	c-0.559,1.484-2.216,2.233-3.698,1.673C94.431,98.348,89.62,95.865,84.981,92.797z M115.449,103.576
	c-0.834-0.552-1.356-1.525-1.282-2.594c0.108-1.581,1.48-2.775,3.061-2.665c5.357,0.37,10.836-0.055,16.287-1.263
	c1.548-0.342,3.081,0.634,3.423,2.182c0.342,1.547-0.633,3.08-2.182,3.423c-5.987,1.326-12.018,1.793-17.924,1.384
	C116.319,104.008,115.848,103.84,115.449,103.576z M148.729,96.44c-0.405-0.268-0.748-0.643-0.981-1.108
	c-0.71-1.418-0.136-3.141,1.282-3.851c8.503-4.256,13.706-8.958,13.757-9.005c1.171-1.067,2.991-0.983,4.054,0.184
	c1.069,1.17,0.99,2.982-0.178,4.052c-0.233,0.213-5.798,5.267-15.064,9.903C150.647,97.09,149.557,96.988,148.729,96.44z"/>
<path style="fill:#FFBF5C;" d="M337.057,405.495c-0.047-0.031-0.094-0.064-0.14-0.098c-4.697-3.517-9.28-7.139-13.621-10.767
	c-1.217-1.016-1.378-2.826-0.362-4.043c1.016-1.217,2.834-1.38,4.043-0.362c4.263,3.562,8.765,7.121,13.381,10.576
	c1.269,0.95,1.527,2.749,0.577,4.018C340.019,406.042,338.315,406.326,337.057,405.495z M310.693,383.42
	c-0.136-0.089-0.265-0.192-0.387-0.307c-4.272-4.026-8.395-8.17-12.255-12.321c-1.079-1.161-1.013-2.977,0.148-4.056
	c1.161-1.078,2.975-1.01,4.056,0.148c3.774,4.058,7.806,8.113,11.987,12.052c1.154,1.087,1.208,2.903,0.12,4.057
	C313.39,384.023,311.835,384.176,310.693,383.42z M287.325,358.235c-0.243-0.161-0.464-0.36-0.656-0.599
	c-3.669-4.572-7.153-9.282-10.354-14c-0.89-1.312-0.549-3.097,0.763-3.987c1.311-0.89,3.097-0.551,3.987,0.763
	c3.116,4.592,6.508,9.178,10.082,13.631c0.992,1.236,0.794,3.043-0.443,4.035C289.708,358.88,288.338,358.905,287.325,358.235z
	 M268.072,329.8c-0.37-0.245-0.689-0.579-0.921-0.993c-2.853-5.105-5.479-10.354-7.808-15.605c-0.643-1.449,0.012-3.144,1.461-3.787
	c1.45-0.642,3.145,0.011,3.787,1.461c2.257,5.089,4.803,10.181,7.571,15.131c0.774,1.383,0.279,3.132-1.104,3.905
	C270.088,330.454,268.94,330.373,268.072,329.8z M254.181,298.401c-0.518-0.342-0.928-0.854-1.139-1.489
	c-1.831-5.52-3.406-11.186-4.678-16.84c-0.348-1.547,0.623-3.082,2.169-3.43c1.545-0.349,3.082,0.621,3.43,2.169
	c1.232,5.47,2.754,10.952,4.527,16.292c0.5,1.504-0.315,3.128-1.82,3.627C255.799,299.021,254.89,298.87,254.181,298.401z
	 M246.643,264.889c-0.677-0.448-1.161-1.178-1.267-2.046c-0.704-5.739-1.133-11.608-1.276-17.442
	c-0.039-1.585,1.214-2.901,2.799-2.939c1.586-0.041,2.902,1.215,2.939,2.799c0.139,5.648,0.554,11.329,1.235,16.884
	c0.193,1.573-0.926,3.005-2.5,3.197C247.869,265.43,247.193,265.253,246.643,264.889z M245.783,230.515
	c-0.835-0.552-1.357-1.527-1.282-2.597c0.402-5.749,1.078-11.593,2.009-17.369c0.252-1.564,1.726-2.628,3.291-2.376
	c1.564,0.254,2.628,1.726,2.376,3.291c-0.905,5.606-1.561,11.277-1.951,16.856c-0.11,1.581-1.482,2.774-3.064,2.662
	C246.652,230.946,246.182,230.778,245.783,230.515z M251.241,196.521c-0.988-0.654-1.505-1.88-1.2-3.094
	c1.414-5.625,3.087-11.264,4.972-16.762c0.514-1.499,2.146-2.298,3.646-1.783c1.495,0.514,2.297,2.146,1.783,3.646
	c-1.833,5.346-3.461,10.83-4.836,16.299c-0.387,1.537-1.946,2.47-3.483,2.084C251.802,196.829,251.504,196.695,251.241,196.521z
	 M262.433,163.917c-1.146-0.758-1.613-2.256-1.038-3.555c4.398-9.929,7.895-15.563,8.041-15.798
	c0.839-1.344,2.609-1.753,3.953-0.915c1.341,0.801,1.754,2.608,0.918,3.953c-0.034,0.054-3.446,5.563-7.663,15.084
	c-0.642,1.45-2.337,2.104-3.787,1.462C262.707,164.082,262.566,164.004,262.433,163.917z"/>
<path style="fill:#738611;" d="M458.732,466.358c-0.848-0.561-1.371-1.555-1.279-2.639c0.277-3.25,0.086-6.027-4.912-12.172
	c-1-1.23-0.814-3.038,0.416-4.038c1.23-1,3.036-0.813,4.038,0.416c5.755,7.077,6.612,11.182,6.179,16.28
	c-0.135,1.579-1.523,2.751-3.103,2.617C459.575,466.779,459.119,466.614,458.732,466.358z M441.376,439.665
	c-0.148-0.097-0.288-0.211-0.42-0.338c-3.346-3.253-7.422-7.093-12.462-11.741c-1.166-1.075-1.238-2.89-0.164-4.056
	c1.074-1.166,2.886-1.242,4.056-0.164c5.076,4.682,9.188,8.555,12.57,11.843c1.136,1.105,1.163,2.921,0.058,4.059
	C444.038,440.275,442.503,440.411,441.376,439.665z M416.155,416.275c-0.12-0.079-0.236-0.17-0.346-0.269
	c-3.899-3.531-8.146-7.36-12.77-11.518c-1.179-1.06-1.275-2.874-0.215-4.053c1.06-1.179,2.873-1.273,4.053-0.215
	c4.629,4.163,8.882,7.996,12.785,11.531c1.175,1.064,1.265,2.879,0.201,4.054C418.898,416.87,417.317,417.044,416.155,416.275z
	 M390.574,393.253c-0.116-0.077-0.229-0.164-0.335-0.26l-12.813-11.488c-1.181-1.058-1.28-2.873-0.222-4.053
	c1.058-1.18,2.876-1.274,4.053-0.222l12.814,11.489c1.18,1.058,1.279,2.873,0.221,4.053
	C393.328,393.846,391.741,394.025,390.574,393.253z M365.092,370.106c-0.147-0.097-0.286-0.209-0.417-0.335
	c-4.113-3.986-8.196-8.173-12.134-12.445c-1.074-1.166-1-2.981,0.165-4.056s2.973-1.006,4.056,0.165
	c3.865,4.192,7.872,8.301,11.909,12.213c1.138,1.103,1.167,2.92,0.064,4.059C367.758,370.715,366.221,370.852,365.092,370.106z
	 M341.743,344.802c-0.231-0.153-0.444-0.342-0.628-0.566c-3.644-4.406-7.249-9.007-10.716-13.673
	c-0.946-1.272-0.681-3.07,0.592-4.016c1.273-0.945,3.069-0.683,4.016,0.592c3.408,4.587,6.951,9.109,10.532,13.439
	c1.01,1.222,0.839,3.03-0.383,4.041C344.157,345.443,342.77,345.48,341.743,344.802z M321.194,317.165
	c-0.308-0.204-0.582-0.472-0.801-0.799c-3.181-4.759-6.311-9.693-9.3-14.663c-0.816-1.358-0.377-3.122,0.981-3.939
	c1.357-0.816,3.12-0.375,3.939,0.981c2.941,4.892,6.022,9.748,9.153,14.431c0.881,1.318,0.526,3.1-0.791,3.982
	C323.383,317.819,322.13,317.784,321.194,317.165z M303.433,287.65c-0.382-0.252-0.707-0.598-0.94-1.029
	c-2.728-5.049-5.386-10.248-7.904-15.455c-0.69-1.427-0.092-3.143,1.335-3.833c1.428-0.689,3.144-0.09,3.833,1.335
	c2.48,5.129,5.099,10.252,7.785,15.224c0.754,1.394,0.234,3.136-1.161,3.89C305.419,288.304,304.288,288.216,303.433,287.65z
	 M288.437,256.632c-0.451-0.298-0.822-0.726-1.052-1.26c-2.289-5.332-4.473-10.751-6.49-16.108
	c-0.559-1.484,0.191-3.139,1.675-3.697c1.483-0.56,3.138,0.191,3.697,1.675c1.987,5.276,4.138,10.613,6.393,15.865
	c0.625,1.457-0.048,3.144-1.505,3.77C290.232,257.273,289.216,257.147,288.437,256.632z M276.313,224.367
	c-0.525-0.347-0.941-0.87-1.148-1.517c-3.34-10.417-4.739-16.601-4.796-16.859c-0.346-1.546,0.625-3.081,2.172-3.428
	c1.546-0.347,3.082,0.624,3.428,2.172c0.014,0.06,1.409,6.218,4.66,16.363c0.484,1.509-0.347,3.125-1.857,3.609
	C277.913,224.984,277.015,224.83,276.313,224.367z"/>
<g>
</g>
<g>
</g>
<g>
</g>
<g>
</g>
<g>
</g>
<g>
</g>
<g>
</g>
<g>
</g>
<g>
</g>
<g>
</g>
<g>
</g>
<g>
</g>
<g>
</g>
<g>
</g>
<g>
</g>
</svg>
